<?xml version="1.0" encoding="utf-8"?>
<!-- Generator: Adobe Illustrator 19.0.0, SVG Export Plug-In . SVG Version: 6.00 Build 0)  -->
<svg version="1.1" id="Layer_1" xmlns="http://www.w3.org/2000/svg" xmlns:xlink="http://www.w3.org/1999/xlink" x="0px" y="0px"
	 viewBox="2 251.9 600 338" style="enable-background:new 2 251.9 600 338;" xml:space="preserve">
<style type="text/css">
	.st0{fill:#1B75BC;}
	.st1{opacity:0.85;fill:#1B75BC;enable-background:new    ;}
</style>
<g>
	<path class="st0" d="M354.3,365.4c-1.9-1.7-4.8-1.7-6.5,0.2l-40.5,42c-1.7-0.8-3.7-1.2-5.7-1.2c-7.6,0-13.8,6.2-13.8,13.8
		s6.2,13.7,13.8,13.7s13.8-6.2,13.8-13.8c0-2.2-0.5-4.3-1.4-6.2l40.3-42C356.2,370,356,367.1,354.3,365.4z"/>
	<path class="st0" d="M301,550.9c-69.9,0-126.8-56.9-126.8-126.8S231.1,297.4,301,297.4s126.8,56.9,126.8,126.8
		C427.6,494,370.9,550.9,301,550.9z M301,306.8c-64.8,0-117.5,52.7-117.5,117.5S236.2,541.8,301,541.8s117.5-52.7,117.5-117.5
		C418.3,359.4,365.8,306.8,301,306.8z"/>
	<path class="st1" d="M359.9,494.3c-2.3,1.4-5.3,1.1-7.1-0.9c-2.2-2.3-2.2-5.9,0.2-8.2l0.2-0.2c2.3-2.2,5.9-2.2,8.2,0.2
		c2.2,2.3,2.2,5.9-0.2,8.2l-0.2,0.2C360.7,493.9,360.2,494.2,359.9,494.3z"/>
	<path class="st0" d="M373.4,477.9c-1.9,1.1-4.2,1.2-6.2,0c-2.6-1.7-3.4-5.3-1.7-8l0.2-0.3c1.7-2.6,5.3-3.4,8-1.7
		c2.6,1.7,3.4,5.3,1.7,8l-0.2,0.2C374.7,476.8,374.1,477.5,373.4,477.9z"/>
	<path class="st0" d="M382.9,458.9c-1.4,0.9-3.2,1.1-4.9,0.5c-2.9-1.1-4.6-4.3-3.6-7.4l0.2-0.3c1.1-2.9,4.5-4.5,7.4-3.4
		s4.5,4.5,3.4,7.4v0.2C384.8,457.2,384,458.3,382.9,458.9z"/>
	<path class="st0" d="M387.9,438.4c-1.1,0.6-2.3,0.9-3.7,0.8c-3.1-0.5-5.4-3.2-4.9-6.5v-0.2c0.5-3.1,3.2-5.4,6.5-4.9
		c3.1,0.5,5.4,3.2,4.9,6.5v0.3C390.4,436,389.4,437.6,387.9,438.4z"/>
	<path class="st0" d="M388.3,417.2c-0.8,0.5-1.5,0.8-2.5,0.8c-3.1,0.3-6-2-6.3-5.3v-0.2c-0.3-3.1,2-6,5.1-6.3c3.1-0.3,6,2,6.3,5.1
		v0.3C391.3,413.9,390.2,416.1,388.3,417.2z"/>
	<path class="st0" d="M383.9,396.5c-0.3,0.2-0.8,0.5-1.2,0.6c-3.1,1.1-6.3-0.6-7.3-3.6l-0.2-0.3c-1.1-3.1,0.6-6.3,3.7-7.3
		c3.1-1.1,6.3,0.6,7.3,3.7l0.2,0.3C387.3,392.3,386.2,395.1,383.9,396.5z"/>
	<path class="st0" d="M242.9,487.7c-17.8-16.2-28-39.4-28-63.4c0-47.5,38.6-86,86-86c5.9,0,11.6,0.6,17.3,1.7l-1.9,9.1
		c-5.1-1.1-10.2-1.5-15.5-1.5c-42.4,0-76.7,34.5-76.7,76.7c0,21.5,9.1,42,24.9,56.6L242.9,487.7z"/>
</g>
</svg>
