<?xml version="1.0" encoding="utf-8"?>
<!-- Generator: Adobe Illustrator 19.0.0, SVG Export Plug-In . SVG Version: 6.00 Build 0)  -->
<svg version="1.1" id="Layer_1" xmlns="http://www.w3.org/2000/svg" xmlns:xlink="http://www.w3.org/1999/xlink" x="0px" y="0px"
	 viewBox="2 251.9 600 338" style="enable-background:new 2 251.9 600 338;" xml:space="preserve">
<style type="text/css">
	.st0{fill:none;}
</style>
<g>
	<path d="M304.5,459.4h7v77h-126v-126h77v7h-70v112h112V459.4z M192.5,375.4h-7v21h7V375.4z M192.5,340.4h-7v21h7V340.4z
		 M325.5,536.4h21v-7h-21V536.4z M360.5,536.4h21v-7h-21V536.4z M192.5,312.4h14v-7h-21v21h7V312.4z M409.5,466.4h7v-21h-7V466.4z
		 M409.5,501.4h7v-21h-7V501.4z M409.5,396.4h7v-21h-7V396.4z M409.5,431.4h7v-21h-7V431.4z M276.5,305.4h-21v7h21V305.4z
		 M241.5,305.4h-21v7h21V305.4z M325.5,312.4h21v-7h-21V312.4z M311.5,305.4h-21v7h21V305.4z M409.5,529.4h-14v7h21v-21h-7V529.4z
		 M409.5,361.4h7v-21h-7V361.4z M360.5,312.4h21v-7h-21V312.4z M395.5,305.4v7h14v14h7v-21H395.5z M283.5,382.4h51.1l-66.5,66.5
		l4.9,4.9l66.5-66.5v51.1h7v-63h-63V382.4z"/>
	<rect x="133" y="252.9" class="st0" width="336" height="336"/>
</g>
</svg>
