<?xml version="1.0" encoding="utf-8"?>
<!-- Generator: Adobe Illustrator 19.0.0, SVG Export Plug-In . SVG Version: 6.00 Build 0)  -->
<svg version="1.1" id="Layer_1" xmlns="http://www.w3.org/2000/svg" xmlns:xlink="http://www.w3.org/1999/xlink" x="0px" y="0px"
	 viewBox="2 251.9 600 338" style="enable-background:new 2 251.9 600 338;" xml:space="preserve">
<style type="text/css">
	.st0{fill:#1B75BC;}
</style>
<g>
	<g>
		<path class="st0" d="M457,297.7H150c-3,0-5.3,2.3-5.3,5.3v245.2c0,3,2.3,5.3,5.3,5.3h307c3,0,5.3-2.3,5.3-5.3V302.9
			C462.3,299.9,460,297.7,457,297.7z M451.8,308.2v46.1H155.3v-46.1H451.8z M155.3,542.9V364.7h296.5v178.2H155.3z"/>
		<circle class="st0" cx="181.2" cy="332.7" r="8.2"/>
		<circle class="st0" cx="210.4" cy="332.7" r="8.2"/>
		<circle class="st0" cx="239.7" cy="332.7" r="8.2"/>
	</g>
</g>
<path class="st0" d="M335.3,457.9c-3,0-5.8,0.7-8.4,1.8l-4.7-6l4.9-6.1c2.5,1.1,5.3,1.8,8.2,1.8c11.2,0,20.5-9.1,20.5-20.5
	c0-11.2-9.1-20.5-20.5-20.5c-6.7,0-12.4,3.2-16.1,8.1l-24-10c0.2-0.9,0.2-1.8,0.2-2.6c0-11.2-9.1-20.5-20.5-20.5
	s-20.5,9.1-20.5,20.5c0,11.2,9.1,20.5,20.5,20.5c3,0,5.8-0.7,8.4-1.8l13.3,16.3l-5.3,2.1c-3.7-4.9-9.6-8.2-16.3-8.2
	c-11.2,0-20.5,9.1-20.5,20.5c0,11.2,9.1,20.5,20.5,20.5c6.7,0,12.4-3.2,16.1-8.1l6.1,2.6l-14.1,17.6c-2.5-1.1-5.3-1.8-8.2-1.8
	c-11.2,0-20.5,9.1-20.5,20.5c0,11.2,9.1,20.5,20.5,20.5s20.5-9.1,20.5-20.5c0-1.1-0.2-2.1-0.2-3l24.3-10.5c3.7,4.7,9.5,7.7,15.9,7.7
	c11.2,0,20.5-9.1,20.5-20.5C355.6,467,346.5,457.9,335.3,457.9z M318.2,465.4l-4-1.8l1.4-1.6L318.2,465.4z M315.4,445.5l-1.8-2.1
	l5.1-2.1L315.4,445.5z M335.3,419c5.4,0,10,4.4,10,10c0,5.4-4.4,10-10,10c-5.4,0-10-4.4-10-10S329.7,419,335.3,419z M264.9,403.8
	c0-5.4,4.4-10,10-10s10,4.4,10,10c0,1.4-0.4,2.6-0.7,3.9l0,0l0,0c-0.7,1.6-1.6,2.8-2.8,3.9l0,0l0,0c-1.8,1.4-3.9,2.3-6.3,2.3
	C269.3,413.8,264.9,409.2,264.9,403.8z M291.9,416.6l23.1,9.6c-0.2,0.9-0.2,1.8-0.2,2.6c0,0.8,0,1.6,0.2,2.5l-8.4,3.3L291.9,416.6z
	 M274.7,463.2c-5.4,0-10-4.4-10-10c0-5.4,4.4-10,10-10s10,4.4,10,10c0,1.4-0.4,2.6-0.7,3.9l0,0l0,0
	C282.4,460.5,278.9,463.2,274.7,463.2z M295,455.8c0.2-0.9,0.2-1.8,0.2-2.8c0-0.9,0-1.6-0.2-2.5l8.4-3.3l5.3,6.5l-4.7,5.8L295,455.8
	z M274.7,514.3c-5.4,0-10-4.4-10-10c0-5.4,4.4-10,10-10c2.3,0,4.6,0.9,6.1,2.1l0,0l0,0c1.2,1.1,2.3,2.3,2.8,3.9l0,0l0,0
	c0.5,1.2,0.9,2.5,0.9,3.9C284.7,509.9,280.3,514.3,274.7,514.3z M292.1,491.2l15.1-18.9l7.9,3.3c-0.2,0.9-0.2,1.8-0.2,2.6
	c0,1.1,0.2,2.1,0.2,3L292.1,491.2z M335.3,488.2c-5.4,0-10-4.4-10-10c0-5.4,4.4-10,10-10c5.4,0,10,4.4,10,10
	C345.1,483.8,340.7,488.2,335.3,488.2z"/>
</svg>
