<?xml version="1.0" encoding="utf-8"?>
<!-- Generator: Adobe Illustrator 19.0.0, SVG Export Plug-In . SVG Version: 6.00 Build 0)  -->
<svg version="1.1" id="Layer_1" xmlns="http://www.w3.org/2000/svg" xmlns:xlink="http://www.w3.org/1999/xlink" x="0px" y="0px"
	 viewBox="2 251.9 600 338" style="enable-background:new 2 251.9 600 338;" xml:space="preserve">
<style type="text/css">
	.st0{fill:none;}
</style>
<g>
	<path d="M389.9,393.3c8.1,5.4,19,3.2,24.4-4.9c5.4-8.1,3.2-19-4.9-24.4c-8.1-5.4-19-3.2-24.4,4.9c-0.5,0.7-0.9,1.4-1.2,2.2
		l-18.7-4.7l28.8-48.6c1.8,0.7,3.8,1,5.7,1c9.8,0,17.7-7.8,17.7-17.6c0-9.8-7.8-17.7-17.6-17.7S382,291.3,382,301
		c0,1.3,0.1,2.6,0.4,3.8l-81.1,35.5c-5.6-7.9-16.5-9.9-24.5-4.3c-3.7,2.6-6.2,6.5-7.1,10.9h-50c-1.9-9.5-11.2-15.7-20.8-13.7
		c-9.5,1.9-15.7,11.2-13.7,20.8c1.7,8.2,8.9,14.1,17.2,14.1c2,0,4-0.4,5.8-1.1l17.8,29.6l-12.7,10.6c-3.1-2.5-6.9-3.9-10.9-3.9
		c-9.7,0-17.6,7.9-17.6,17.6c0,9.7,7.9,17.6,17.6,17.6c4,0,7.8-1.4,10.9-3.9l12.7,10.6l-17.8,29.6c-1.9-0.7-3.8-1-5.8-1.1
		c-9.7,0-17.6,7.9-17.6,17.6c0,9.7,7.9,17.6,17.6,17.6c8.4,0,15.6-5.9,17.2-14.1h50c1.9,9.5,11.2,15.7,20.7,13.7
		c4.4-0.9,8.3-3.4,10.9-7.1l81.1,35.5c-2.2,9.7,3.8,19.3,13.5,21.5c9.7,2.2,19.3-3.8,21.5-13.5c2.2-9.7-3.8-19.3-13.5-21.5
		c-3.3-0.8-6.8-0.6-10.1,0.6L365,475.4l18.7-4.7c4.2,8.8,14.7,12.4,23.5,8.2c8.8-4.2,12.4-14.7,8.2-23.5
		c-4.2-8.8-14.7-12.4-23.5-8.2c-0.7,0.4-1.4,0.8-2.1,1.2l-27.6-27.6L389.9,393.3z M399.6,368.1c5.8,0,10.6,4.7,10.6,10.6
		c0,5.8-4.7,10.6-10.6,10.6s-10.6-4.7-10.6-10.6C389,372.8,393.8,368.1,399.6,368.1z M382.1,377.9c0,0.3-0.1,0.5-0.1,0.8
		c0,0.9,0.1,1.8,0.3,2.7L348.7,394l12.6-21.3L382.1,377.9z M217.9,483l26.8-22.3l26.8,22.3c-0.8,1.5-1.4,3.1-1.8,4.8h-50
		C219.3,486.1,218.7,484.5,217.9,483z M271.5,358.8l-26.8,22.3l-26.8-22.3c0.8-1.5,1.4-3.1,1.8-4.8h50
		C270,355.7,270.6,357.3,271.5,358.8z M328.6,414l-2.4-4.1l6.2-2.3L328.6,414z M332.4,434.2l-6.2-2.3l2.4-4.1L332.4,434.2z
		 M269.7,417.4h-18.8l8.8-14.6l11.8,9.9C270.6,414.1,270,415.7,269.7,417.4z M269.7,424.4c0.4,1.7,1,3.3,1.8,4.8l-11.8,9.9
		l-8.8-14.6H269.7z M276.4,420.9c0-5.8,4.7-10.6,10.6-10.6c5.8,0,10.6,4.7,10.6,10.6c0,5.8-4.7,10.6-10.6,10.6
		C281.1,431.4,276.4,426.7,276.4,420.9z M324.6,420.9l-5,8.5l-15.3-5.7c0.4-1.8,0.4-3.7,0-5.5l15.3-5.7L324.6,420.9z M316.9,394.2
		l4.2-4.5l10.6,10.6l-9.2,3.4L316.9,394.2z M313.2,387.9l-9-15.1l11.9,11.9L313.2,387.9z M315.9,406.3l-14.1,5.3
		c-0.2-0.3-0.3-0.5-0.5-0.8l10.6-11.3L315.9,406.3z M301.8,430.2l14.1,5.3l-4,6.8L301.3,431C301.5,430.8,301.6,430.5,301.8,430.2z
		 M316.2,457.1L304.2,469l9-15.1L316.2,457.1z M316.9,447.6l5.7-9.6l9.2,3.4l-10.6,10.6L316.9,447.6z M338.6,397.2L326,384.5
		l15.8-16.7l12.4,3.1L338.6,397.2z M321,379.6l-19.4-19.4c0.4-0.7,0.8-1.4,1.1-2.1l31.2,7.8L321,379.6z M292.6,367l15.5,26.2
		l-12,12.8c-6.3-4-14.4-3.5-20.1,1.2l-12.7-10.6l17.8-29.6C284.8,368.4,288.9,368.4,292.6,367L292.6,367z M257.8,392.1l-7.7-6.4
		l23-19.2L257.8,392.1z M254.2,398.2l-9.5,15.9l-9.5-15.9l9.5-7.9L254.2,398.2z M244.7,427.7l9.5,15.9l-9.5,7.9l-9.5-7.9
		L244.7,427.7z M257.8,449.7l15.4,25.6l-23-19.2L257.8,449.7z M281.1,474.8l-17.8-29.6l12.7-10.6c5.7,4.7,13.9,5.2,20.1,1.2l12,12.8
		l-15.5,26.2C288.9,473.3,284.8,473.4,281.1,474.8z M301.6,481.6l19.4-19.4l12.9,13.7l-31.2,7.8C302.4,483,302,482.3,301.6,481.6z
		 M326,457.2l12.6-12.6l15.6,26.3l-12.4,3.1L326,457.2z M340,433.2l-7.3-12.3l7.3-12.3l12.3,12.3L340,433.2z M357.9,364.6l-10.7-2.7
		l33.1-35.1L357.9,364.6z M399.6,290.6c5.8,0,10.6,4.7,10.6,10.6c0,5.8-4.7,10.6-10.6,10.6S389,307,389,301.2
		C389,295.4,393.8,290.6,399.6,290.6z M385.2,311.3L339.4,360l-35-8.7c0-0.3,0.1-0.5,0.1-0.8c0-1.2-0.1-2.5-0.4-3.7L385.2,311.3z
		 M286.9,339.9c5.8,0,10.6,4.7,10.6,10.6s-4.7,10.6-10.6,10.6c-5.8,0-10.6-4.7-10.6-10.6C276.4,344.6,281.1,339.9,286.9,339.9z
		 M191.9,350.5c0-5.8,4.7-10.6,10.6-10.6s10.6,4.7,10.6,10.6s-4.7,10.6-10.6,10.6C196.6,361,191.9,356.3,191.9,350.5z M216.1,366.5
		l23,19.2l-7.7,6.4L216.1,366.5z M229.7,402.8l8.8,14.6h-18.8c-0.4-1.7-1-3.3-1.8-4.8L229.7,402.8z M202.4,431.5
		c-5.8,0-10.6-4.7-10.6-10.6c0-5.8,4.7-10.6,10.6-10.6s10.6,4.7,10.6,10.6C213,426.7,208.2,431.4,202.4,431.5z M217.9,429.2
		c0.8-1.5,1.4-3.1,1.8-4.8h18.8l-8.8,14.6L217.9,429.2z M231.5,449.7l7.7,6.4l-23,19.2L231.5,449.7z M202.4,501.9
		c-5.8,0-10.6-4.7-10.6-10.6s4.7-10.6,10.6-10.6s10.6,4.7,10.6,10.6C213,497.1,208.2,501.9,202.4,501.9z M286.9,501.9
		c-5.8,0-10.6-4.7-10.6-10.6s4.7-10.6,10.6-10.6c5.8,0,10.6,4.7,10.6,10.6C297.5,497.1,292.7,501.9,286.9,501.9z M304.4,490.6
		l35-8.7l45.8,48.7L304.1,495c0.3-1.2,0.4-2.4,0.4-3.7C304.5,491,304.5,490.8,304.4,490.6z M410.1,540.6c0,5.8-4.7,10.6-10.6,10.6
		s-10.6-4.7-10.6-10.6s4.7-10.6,10.6-10.6C405.4,530,410.1,534.8,410.1,540.6z M380.3,515l-33.1-35.1l10.7-2.7L380.3,515z
		 M361.3,469.1l-12.6-21.3l33.6,12.6c-0.2,0.9-0.3,1.8-0.3,2.7c0,0.3,0.1,0.5,0.1,0.8L361.3,469.1z M410.1,463.1
		c0,5.8-4.7,10.6-10.6,10.6S389,469,389,463.1c0-5.8,4.7-10.6,10.6-10.6C405.4,452.6,410.1,457.3,410.1,463.1z M384.9,453.4
		c-0.1,0.1-0.1,0.2-0.2,0.4l-40.2-15.1l12.8-12.8L384.9,453.4z M344.5,403.1l40.2-15.1c0.1,0.1,0.1,0.2,0.2,0.4l-27.6,27.6
		L344.5,403.1z"/>
	<rect x="132" y="251.9" class="st0" width="338" height="338"/>
</g>
</svg>
