<?xml version="1.0" encoding="utf-8"?>
<!-- Generator: Adobe Illustrator 19.0.0, SVG Export Plug-In . SVG Version: 6.00 Build 0)  -->
<svg version="1.1" id="Layer_1" xmlns="http://www.w3.org/2000/svg" xmlns:xlink="http://www.w3.org/1999/xlink" x="0px" y="0px"
	 viewBox="2 251.9 600 338" style="enable-background:new 2 251.9 600 338;" xml:space="preserve">
<style type="text/css">
	.st0{fill:#1B75BC;}
</style>
<g>
	<path class="st0" d="M385.9,348.4h-41.4V300h-20.7v48.3h-34.5V300h-20.7v48.3H227v20.7h13.8v51.8l11.9,44.9H303v44.9
		c0,13.3-10.8,24.2-24.2,24.2h-62.2v6.9h62.2c17.2,0,31.1-13.9,31.1-31.1v-44.9h50.3l11.8-44l0.1-52.7h13.8V348.4z M330.6,306.9h6.9
		v41.4h-6.9V306.9z M275.4,306.9h6.9v41.4h-6.9V306.9z M365.1,420.4l-10.3,38.4H258l-10.3-38.4v-51.3h117.4V420.4z M378.9,362.2
		h-145v-6.9h145V362.2z"/>
</g>
</svg>
