<?xml version="1.0" encoding="utf-8"?>
<!-- Generator: Adobe Illustrator 19.0.0, SVG Export Plug-In . SVG Version: 6.00 Build 0)  -->
<svg version="1.1" id="Layer_1" xmlns="http://www.w3.org/2000/svg" xmlns:xlink="http://www.w3.org/1999/xlink" x="0px" y="0px"
	 viewBox="2 251.9 600 338" style="enable-background:new 2 251.9 600 338;" xml:space="preserve">
<style type="text/css">
	.st0{fill:#1B75BC;}
</style>
<g>
	<path class="st0" d="M467,299.8H135v206.4h133.2l-7.2,26.9h-27.3v9h134.6v-9H341l-7.2-26.9H467V299.8z M331.7,533.1h-61.4l7.2-26.9
		h47L331.7,533.1z M458,497.2H144V308.7H458V497.2z"/>
	<path class="st0" d="M449.1,317.7H152.9v170.5h296.1V317.7z M440.1,479.2H161.9V326.7h278.2V479.2z"/>
	<path class="st0" d="M238.2,398.5c4.6,0,8.9-2.4,11.3-6.2l29.3,8.4c-0.8,4.9,0.3,10,3.2,14.1l-13.4,14.5c-10.4-7-24.4-4.3-31.5,6.1
		s-4.3,24.4,6.1,31.5c10.4,7,24.4,4.3,31.5-6.1c5.1-7.5,5.2-17.4,0.2-25l13.2-14.3c9.2,6.6,21.9,5.1,29.5-3.3l17.2,11.1
		c-1.5,3.1-2.4,6.4-2.4,9.9c0,12.4,10,22.4,22.4,22.4s22.4-10,22.4-22.4s-10-22.4-22.4-22.4c-5.3,0-10.5,2-14.5,5.5l-18.2-11.7
		c1.6-4.3,1.7-9,0.3-13.4l17.6-17.6c1.8,0.9,3.8,1.3,5.8,1.3c7.4,0,13.5-6,13.5-13.5s-6-13.5-13.5-13.5s-13.5,6-13.5,13.5
		c0,2,0.5,4,1.3,5.8L318,388.5c-3.9-4.7-9.6-7.5-15.7-7.9l-3.4-20.1c6.4-3.9,8.4-12.1,4.5-18.5c-3.9-6.4-12.1-8.4-18.5-4.5
		c-6.4,3.9-8.4,12.1-4.5,18.5c2.1,3.5,5.7,5.8,9.7,6.4l3.3,19.5c-5.1,1.8-9.3,5.4-12,10.2l-30-8.6c-0.9-7.4-7.5-12.6-14.9-11.8
		c-7.4,0.9-12.6,7.5-11.8,14.9C225.6,393.4,231.4,398.5,238.2,398.5z M368.3,438.8c0,7.4-6,13.5-13.5,13.5s-13.5-6-13.5-13.5
		s6-13.5,13.5-13.5C362.3,425.4,368.3,431.4,368.3,438.8z M345.9,362.6c2.5,0,4.5,2,4.5,4.5s-2,4.5-4.5,4.5s-4.5-2-4.5-4.5
		C341.4,364.6,343.4,362.6,345.9,362.6z M256.1,461.3c-7.4,0-13.5-6-13.5-13.5c0-7.4,6-13.5,13.5-13.5s13.5,6,13.5,13.5
		C269.6,455.2,263.6,461.3,256.1,461.3z M292,344.6c2.5,0,4.5,2,4.5,4.5c0,2.5-2,4.5-4.5,4.5s-4.5-2-4.5-4.5
		C287.5,346.6,289.6,344.6,292,344.6z M298.2,389.8l0.3-0.1c7.3-1.4,14.3,3.4,15.7,10.7c0.7,3.4,0,7-2,9.9l-0.2,0.3
		c-4.2,6.1-12.6,7.7-18.7,3.5c-6.1-4.2-7.7-12.6-3.5-18.7C291.9,392.5,294.8,390.5,298.2,389.8L298.2,389.8z M238.2,380.5
		c2.5,0,4.5,2,4.5,4.5s-2,4.5-4.5,4.5s-4.5-2-4.5-4.5C233.7,382.5,235.7,380.5,238.2,380.5z"/>
</g>
</svg>
