<?xml version="1.0" encoding="utf-8"?>
<!-- Generator: Adobe Illustrator 19.0.0, SVG Export Plug-In . SVG Version: 6.00 Build 0)  -->
<svg version="1.1" id="Layer_1" xmlns="http://www.w3.org/2000/svg" xmlns:xlink="http://www.w3.org/1999/xlink" x="0px" y="0px"
	 viewBox="2 251.9 600 338" style="enable-background:new 2 251.9 600 338;" xml:space="preserve">
<style type="text/css">
	.st0{fill:#1B75BC;}
</style>
<g>
	<path class="st0" d="M241.2,299.3v243.2h121.6V299.3H241.2z M356.4,536.1H247.6V369.7h108.8V536.1z M356.4,363.3H247.6v-6.4h108.8
		V363.3z M247.6,350.5v-44.8h108.8v44.8H247.6z"/>
	<path class="st0" d="M302,401.7c5.3,0,9.6-4.3,9.6-9.6c0-5.3-4.3-9.6-9.6-9.6c-5.3,0-9.6,4.3-9.6,9.6
		C292.4,397.4,296.7,401.7,302,401.7z M302,388.9c1.8,0,3.2,1.4,3.2,3.2s-1.4,3.2-3.2,3.2c-1.8,0-3.2-1.4-3.2-3.2
		C298.8,390.3,300.2,388.9,302,388.9L302,388.9z"/>
</g>
</svg>
