<?xml version="1.0" encoding="utf-8"?>
<!-- Generator: Adobe Illustrator 19.0.0, SVG Export Plug-In . SVG Version: 6.00 Build 0)  -->
<svg version="1.1" id="Layer_1" xmlns="http://www.w3.org/2000/svg" xmlns:xlink="http://www.w3.org/1999/xlink" x="0px" y="0px"
	 viewBox="2 251.9 600 338" style="enable-background:new 2 251.9 600 338;" xml:space="preserve">
<style type="text/css">
	.st0{fill:#1B75BC;}
</style>
<g>
	<path class="st0" d="M372.4,424.6c-7,0-14,1.3-20.5,3.8l-15-25c24.8-20.8,28-57.8,7.1-82.5c-20.8-24.8-57.8-28-82.5-7.1
		c-24.8,20.8-28,57.8-7.1,82.5c2.2,2.6,4.6,5,7.1,7.1l-14.3,23.9c-30.8-9.7-63.7,7.4-73.5,38.2s7.4,63.7,38.2,73.5
		c30.8,9.7,63.7-7.4,73.5-38.2c1.1-3.4,1.8-6.8,2.3-10.3h26.7c4.1,32.1,33.3,54.8,65.4,50.7s54.8-33.3,50.7-65.4
		C426.8,446.5,401.9,424.6,372.4,424.6z M248,358.7c-0.1-28.3,22.8-51.3,51.2-51.3c28.3-0.1,51.3,22.8,51.3,51.2
		c0,16.4-7.8,31.8-21,41.4l-2.4,1.4l0.1,0.2c-17,11.2-39,11.2-56,0l0.1-0.2l-2.5-1.5C255.7,390.2,248,374.9,248,358.7z M229.6,534.4
		c-28.3,0-51.2-22.9-51.2-51.2c0-28.3,22.9-51.2,51.2-51.2s51.2,22.9,51.2,51.2l0,0C280.8,511.4,257.9,534.4,229.6,534.4z
		 M288.2,483.2c0-22.8-13.3-43.6-34.1-53.1l13.3-22.2c19.3,12.6,44.2,12.6,63.6,0l14.1,23.6c-19.2,10.1-31.3,30.1-31.3,51.8H288.2z
		 M372.4,534.4c-27.3,0-49.8-21.5-51.1-48.8v-2.4h-0.1c0-28.3,22.9-51.2,51.2-51.2s51.2,22.9,51.2,51.2
		C423.7,511.5,400.7,534.4,372.4,534.4z"/>
	<path class="st0" d="M355.5,483.1l-9.8,36.7h53.5l-9.8-36.6L355.5,483.1z M355.2,512.4l5.9-22l22.6,0l5.9,22L355.2,512.4z"/>
	<path class="st0" d="M372.4,475.8c10.1,0,18.3-8.2,18.3-18.3c0-10.1-8.2-18.3-18.3-18.3c-10.1,0-18.3,8.2-18.3,18.3
		C354.2,467.6,362.3,475.8,372.4,475.8z M372.4,446.6c6.1,0,11,4.9,11,11c0,6.1-4.9,11-11,11c-6.1,0-11-4.9-11-11
		C361.5,451.5,366.4,446.6,372.4,446.6z"/>
	<path class="st0" d="M212.7,483.1l-9.8,36.7h53.5l-9.8-36.6L212.7,483.1z M212.4,512.4l5.9-22l22.6,0l5.9,22L212.4,512.4z"/>
	<path class="st0" d="M229.6,475.8c10.1,0,18.3-8.2,18.3-18.3c0-10.1-8.2-18.3-18.3-18.3c-10.1,0-18.3,8.2-18.3,18.3
		C211.4,467.6,219.5,475.8,229.6,475.8z M229.6,446.6c6.1,0,11,4.9,11,11c0,6.1-4.9,11-11,11c-6.1,0-11-4.9-11-11
		C218.7,451.5,223.6,446.6,229.6,446.6z"/>
	<path class="st0" d="M316.1,358.7l-33.8,0l-9.8,36.6H326L316.1,358.7z M287.9,366l22.6,0l5.9,22H282L287.9,366z"/>
	<path class="st0" d="M299.2,351.3c10.1,0,18.3-8.2,18.3-18.3c0-10.1-8.2-18.3-18.3-18.3s-18.3,8.2-18.3,18.3
		C280.9,343.1,289.1,351.3,299.2,351.3z M299.2,322.1c6.1,0,11,4.9,11,11s-4.9,11-11,11s-11-4.9-11-11l0,0
		C288.3,327,293.2,322.1,299.2,322.1z"/>
</g>
</svg>
