<?xml version="1.0" encoding="utf-8"?>
<!-- Generator: Adobe Illustrator 19.0.0, SVG Export Plug-In . SVG Version: 6.00 Build 0)  -->
<svg version="1.1" id="Layer_1" xmlns="http://www.w3.org/2000/svg" xmlns:xlink="http://www.w3.org/1999/xlink" x="0px" y="0px"
	 viewBox="2 251.9 600 338" style="enable-background:new 2 251.9 600 338;" xml:space="preserve">
<style type="text/css">
	.st0{fill:none;}
</style>
<g>
	<path d="M340,476.6l-39-20.6l-39,20.6l7.5-43.5l-31.6-30.7l43.7-6.3l19.5-39.6l19.5,39.6l43.7,6.3l-31.6,30.7L340,476.6z
		 M301,448.1l29.6,15.6l-5.7-33l24-23.3l-33.2-4.8L301,372.5l-14.8,30.1l-33.2,4.8l24,23.3l-5.7,33L301,448.1z M439.4,438l-3.7-6
		l-13,8.2c0.9-5.9,1.4-11.9,1.5-17.8l15.6-15.6l-5-5l-10.9,10.9c-0.4-6-1.2-11.9-2.5-17.7l1.2-1.9h0l10.6-16.9l-6-3.7l-8.2,13.1
		c-1.7-5.7-3.8-11.3-6.4-16.7l0.7-2.1h0l6.6-18.8l-6.6-2.3l-5.1,14.6c-2.9-5.2-6.3-10.2-9.9-14.9l2.5-22l-7-0.8L392,338
		c-4-4.4-8.4-8.5-13-12.3l-0.3-2.3l0,0l-2.2-19.8l-7,0.8l1.7,15.4c-4.9-3.4-10-6.4-15.4-9.1l-7.4-21l-6.6,2.3l5.2,14.7
		c-4.6-1.9-9.3-3.5-14.2-4.8l-1.8,6.8c4.1,1.1,8.1,2.5,12,4l-13.4,4.7l2.3,6.6l18.8-6.6l0,0l1.7-0.6c4.7,2.3,9.3,5,13.7,7.9
		l-14.2,1.6l0.8,7l21.6-2.4c4.1,3.3,7.9,6.9,11.5,10.7l-14.1-1.6l-0.8,7l21.7,2.4c3.2,4.1,6.1,8.5,8.7,13l-13.4-4.7l-2.3,6.6
		l18.8,6.6h0l1.8,0.6c2.2,4.8,4.1,9.7,5.7,14.7l-12.1-7.6l-3.7,6l16.9,10.6l0,0l1.6,1c1.1,5.2,1.9,10.4,2.4,15.6l-10.2-10.2l-5,5
		l15.5,15.5c-0.1,5.2-0.5,10.5-1.3,15.7l-7.6-12.1l-6,3.7l10.6,16.9h0l1,1.7c-1.2,5.1-2.8,10.1-4.8,14.9l-4.7-13.5l-6.6,2.3
		l6.6,18.8l0,0l0.6,1.7c-2.3,4.7-5,9.2-7.9,13.6l-1.6-14.1l-7,0.8l2.4,21.6c-3.3,4.1-6.9,8-10.7,11.6l1.6-14.2l-7-0.8l-2.2,19.8h0
		l-0.2,1.8C360.1,522,346,529,331,533l1.8,6.8c15.8-4.2,30.7-11.6,43.6-21.7l2,0.2l0.3,0l0,0l19.8,2.2l0.8-7l-15.4-1.7
		c4.4-4,8.5-8.4,12.3-13l2.3-0.3l0,0l19.8-2.2l-0.8-7l-15.5,1.7c3.4-4.9,6.5-10.1,9.2-15.4l21-7.3l-2.3-6.6l-14.6,5.1
		c2.3-5.6,4.1-11.3,5.5-17.1L439.4,438z M229.5,510.6L229.5,510.6l-2.2-19.8l-7,0.8l1.6,14.2c-3.8-3.6-7.4-7.5-10.7-11.6l2.4-21.6
		l-7-0.8l-1.6,14.1c-2.9-4.3-5.6-8.9-7.9-13.6l0.6-1.7l0,0l6.6-18.8l-6.6-2.3l-4.7,13.5c-1.9-4.9-3.5-9.8-4.8-14.9l1-1.7h0
		l10.6-16.9l-6-3.7l-7.6,12.1c-0.8-5.2-1.2-10.4-1.3-15.7l15.5-15.5l-5-5L185.2,412c0.4-5.3,1.2-10.5,2.4-15.6l1.6-1l0,0l16.9-10.6
		l-3.7-6l-12.1,7.6c1.6-5,3.5-9.9,5.7-14.7l1.8-0.6h0l18.8-6.6l-2.3-6.6l-13.4,4.7c2.6-4.5,5.5-8.9,8.7-13l21.7-2.4l-0.8-7
		l-14.1,1.6c3.6-3.8,7.4-7.4,11.5-10.7l21.6,2.4l0.8-7l-14.2-1.6c4.4-2.9,9-5.6,13.7-7.9l1.7,0.6l0,0l18.8,6.6l2.3-6.6l-13.4-4.7
		c3.9-1.6,7.9-2.9,12-4l-1.8-6.8c-4.8,1.3-9.5,2.9-14.2,4.8l5.2-14.7l-6.6-2.3l-7.4,21c-5.3,2.6-10.5,5.7-15.4,9.1l1.7-15.4l-7-0.8
		l-2.2,19.8l0,0l-0.3,2.3c-4.6,3.8-9,7.9-13,12.3l-1.7-15.4l-7,0.8l2.5,22c-3.7,4.7-7,9.7-9.9,14.9l-5.1-14.6l-6.6,2.3l6.6,18.8h0
		l0.7,2.1c-2.5,5.4-4.7,11-6.4,16.7l-8.2-13.1l-6,3.7l10.6,16.9h0l1.2,1.9c-1.3,5.8-2.1,11.7-2.5,17.7l-10.9-10.9l-5,5l15.6,15.6
		c0.1,6,0.6,11.9,1.5,17.8l-13-8.2l-3.7,6l18.7,11.7c1.4,5.8,3.3,11.5,5.5,17.1l-14.6-5.1l-2.3,6.6l21,7.3
		c2.7,5.3,5.7,10.5,9.2,15.4l-15.5-1.7l-0.8,7l19.8,2.2l0,0l2.3,0.3c3.8,4.6,7.9,9,12.3,13l-15.4,1.7l0.8,7l19.8-2.2l0,0l0.3,0
		l2-0.2c12.9,10.1,27.8,17.4,43.6,21.7l1.8-6.8c-15-4-29-11-41.3-20.6L229.5,510.6z"/>
	<rect x="132" y="251.9" class="st0" width="338" height="338"/>
</g>
</svg>
